<svg xmlns="http://www.w3.org/2000/svg" viewBox="0 0 1254 1254" width="1254" height="1254">
<rect width="1254" height="1254" fill="#fff"/>
<g fill="#111214">
<path d="M 624 301 L 612 305 L 604 312 L 598 328 L 603 346 L 611 354 L 619 358 L 619 577 L 601 584 L 589 595 L 581 611 L 580 631 L 583 641 L 592 652 L 606 660 L 619 663 L 619 890 L 608 893 L 600 900 L 598 917 L 605 930 L 616 935 L 629 935 L 641 930 L 649 919 L 649 906 L 643 898 L 635 893 L 635 663 L 651 658 L 664 647 L 672 632 L 674 613 L 669 598 L 660 586 L 648 579 L 635 576 L 635 358 L 645 353 L 651 345 L 655 331 L 650 317 L 642 307 Z"/>
<path d="M 519 337 L 352 442 L 352 600 L 400 600 L 400 465 L 519 390 Z"/>
<path d="M 736 336 L 903 442 L 903 600 L 855 600 L 855 465 L 736 390 Z"/>
<path d="M 352 654 L 352 800 L 519 915 L 519 861 L 400 779 L 400 654 Z"/>
<path d="M 855 654 L 855 779 L 736 861 L 736 915 L 903 800 L 903 654 Z"/>
<path d="M 545 473 L 609 473 L 609 490 L 545 490 Z"/>
<path d="M 646 473 L 709 473 L 709 490 L 646 490 Z"/>
<path d="M 545 763 L 609 763 L 609 780 L 545 780 Z"/>
<path d="M 646 763 L 709 763 L 709 780 L 646 780 Z"/>
</g>
</svg>